# xmcd
# Copyright (C) 1995-1998 Ti Kan
#
# Track frame offsets:
#       150
#       19097
#       37912
#       60375
#       78142
#       84255
#       104275
#       123347
#       141720
#       163275
#       194298
#
# Disc length: 3852 seconds
#
# Revision: 0
# Processed by: cddbd v1.5.2PL0 Copyright (c) Steve Scherf et al.
# Submitted via: CD-Import v1.0
#
DISCID=880f0a0b
DTITLE=Attack Vertical - Human Race
DYEAR=05
DGENRE=
TTITLE0=Speeder
TTITLE1=Mong
TTITLE2=L'ange Ne Passera Plus
TTITLE3=Faites Vos Jeux
TTITLE4=Il Était Une Fois...
TTITLE5=Omi
TTITLE6=Dad
TTITLE7=14 Goy
TTITLE8=Single
TTITLE9=26.12
TTITLE10=Data Track
EXTD=
EXTT0=
EXTT1=
EXTT2=
EXTT3=
EXTT4=
EXTT5=
EXTT6=
EXTT7=
EXTT8=
EXTT9=
EXTT10=
PLAYORDER=
